<svg width="69" height="68" viewBox="0 0 69 68" fill="none" xmlns="http://www.w3.org/2000/svg">
    <g clip-path="url(#clip0_10_390)">
        <path d="M59.6696 24.7742C58.6599 24.7742 57.6797 24.9288 56.7426 25.2349C55.037 19.1754 49.4221 14.9004 42.9249 14.9004C36.508 14.9004 30.8687 19.1668 29.1368 25.1726C28.1478 24.9585 27.1257 24.8344 26.0739 24.8344C19.5779 24.8344 13.964 29.1082 12.2584 35.1689C11.3213 34.8618 10.3412 34.7071 9.33139 34.7071C4.18614 34.7071 0 38.8316 0 43.9023C0 48.9741 4.18614 53.0996 9.33139 53.0996H40.5707C44.877 53.0996 48.3798 49.6465 48.3798 45.4027C48.3798 44.6236 48.2582 43.8732 48.0389 43.1646H59.6696C64.8148 43.1646 69 39.0402 69 33.9694C69 28.8986 64.8148 24.7742 59.6696 24.7742ZM40.5707 50.9746H9.33139C5.37478 50.9746 2.15625 47.8017 2.15625 43.9023C2.15625 40.0041 5.37478 36.8321 9.33139 36.8321C10.4612 36.8321 11.5404 37.0833 12.5405 37.5792C12.8438 37.7297 13.2007 37.7297 13.506 37.5802C13.8102 37.4308 14.0251 37.1486 14.0861 36.8186C15.1337 31.1056 20.1758 26.9594 26.0739 26.9594C32.7501 26.9594 38.2165 32.3103 38.2576 38.8876C38.2597 39.202 38.4029 39.4998 38.6482 39.7001C38.8945 39.9003 39.2199 39.9823 39.5316 39.9263C39.8769 39.864 40.2265 39.8318 40.5707 39.8318C43.6872 39.8318 46.2235 42.3314 46.2235 45.4027C46.2235 48.4751 43.6872 50.9746 40.5707 50.9746ZM59.6696 41.0396H46.9984C45.5516 38.9797 43.1095 37.6464 40.3581 37.7099C39.8664 32.254 36.1977 27.6785 31.2037 25.7799C32.6646 20.6629 37.4627 17.0254 42.9249 17.0254C48.8241 17.0254 53.8672 21.1717 54.9148 26.8846C54.976 27.2147 55.1907 27.4969 55.4939 27.6462C55.7972 27.7957 56.1562 27.7967 56.4594 27.6453C57.4606 27.1503 58.5409 26.8992 59.6696 26.8992C63.6251 26.8992 66.8438 30.0712 66.8438 33.9694C66.8438 37.8677 63.6251 41.0396 59.6696 41.0396Z" fill="black"/>
    </g>
    <defs>
        <clipPath id="clip0_10_390">
        <rect width="69" height="68" fill="white"/>
        </clipPath>
    </defs>
</svg>
    