<svg width="279" height="205" viewBox="0 0 279 205" fill="none" xmlns="http://www.w3.org/2000/svg">
    <path d="M228.787 79.3615C228.787 131.437 199.354 156.828 171.923 169.166C147.956 179.997 125.455 180.858 125.455 180.858C83.5752 180.858 49.6031 155.896 49.6031 125.125C49.6031 106.188 64.0712 92.5806 82.062 79.3615C128.831 44.9975 123.763 27.0711 165.967 27.0711C200.672 27.0711 228.787 47.765 228.787 73.2644C228.787 75.5599 228.787 79.3615 228.787 79.3615Z" fill="#A57939"/>
    <path d="M228.799 73.259C228.799 75.5653 228.799 79.3521 228.799 79.3521C228.799 131.428 199.349 156.825 171.914 169.153C147.966 180.001 125.452 180.856 125.452 180.856C118.981 180.856 112.742 180.258 106.775 179.147C229.07 154.604 205.006 37.0993 205.006 37.0993C219.499 45.5556 228.799 58.6243 228.799 73.259Z" fill="#A57939"/>
    <path d="M148.311 156.285C155.246 156.285 160.869 152.154 160.869 147.058C160.869 141.962 155.246 137.831 148.311 137.831C141.375 137.831 135.753 141.962 135.753 147.058C135.753 152.154 141.375 156.285 148.311 156.285Z" fill="#A57939"/>
    <path d="M228.787 79.3615C228.787 131.437 199.354 156.828 171.923 169.166C147.956 179.997 125.455 180.858 125.455 180.858C83.5752 180.858 49.6031 155.896 49.6031 125.125C49.6031 106.188 64.0712 92.5806 82.062 79.3615C128.831 44.9975 123.763 27.0711 165.967 27.0711C200.672 27.0711 228.787 47.765 228.787 73.2644C228.787 75.5599 228.787 79.3615 228.787 79.3615Z" stroke="black" stroke-width="2" stroke-miterlimit="10" stroke-linecap="round" stroke-linejoin="round"/>
    <path d="M153.194 49.7546C155.891 49.7546 158.078 48.1481 158.078 46.1663C158.078 44.1845 155.891 42.5779 153.194 42.5779C150.497 42.5779 148.311 44.1845 148.311 46.1663C148.311 48.1481 150.497 49.7546 153.194 49.7546Z" fill="black"/>
    <path d="M148.311 156.285C155.246 156.285 160.869 152.154 160.869 147.058C160.869 141.962 155.246 137.831 148.311 137.831C141.375 137.831 135.753 141.962 135.753 147.058C135.753 152.154 141.375 156.285 148.311 156.285Z" stroke="black" stroke-width="2" stroke-miterlimit="10" stroke-linecap="round" stroke-linejoin="round"/>
    <path d="M228.787 79.3615C228.787 131.437 199.354 156.828 171.923 169.166C147.956 179.997 125.455 180.858 125.455 180.858C83.5752 180.858 49.6031 155.896 49.6031 125.125C49.6031 106.188 64.0712 92.5806 82.062 79.3615C128.831 44.9975 123.763 27.0711 165.967 27.0711C200.672 27.0711 228.787 47.765 228.787 73.2644C228.787 75.5599 228.787 79.3615 228.787 79.3615Z" stroke="black" stroke-width="2" stroke-miterlimit="10" stroke-linecap="round" stroke-linejoin="round"/>
</svg>
    